<svg width="175" height="175" viewBox="0 0 175 175" fill="none" xmlns="http://www.w3.org/2000/svg">
<path d="M60.7608 48.5363C60.7994 44.5092 57.5662 41.2133 53.5391 41.1747C49.512 41.136 46.2161 44.3692 46.1774 48.3963C46.1388 52.4234 49.372 55.7193 53.3991 55.758C57.4262 55.7966 60.7221 52.5634 60.7608 48.5363Z" stroke="white" stroke-width="4.86111" stroke-miterlimit="10" stroke-linecap="round" stroke-linejoin="round"/>
<path d="M145.826 29.6873H29.1594V68.5761H145.826V29.6873Z" stroke="white" stroke-width="4.86111" stroke-miterlimit="10" stroke-linecap="round" stroke-linejoin="round"/>
<path d="M128.82 48.5333C128.859 44.5063 125.625 41.2103 121.598 41.1717C117.571 41.133 114.275 44.3663 114.237 48.3933C114.198 52.4204 117.431 55.7163 121.458 55.755C125.485 55.7937 128.781 52.5604 128.82 48.5333Z" stroke="white" stroke-width="4.86111" stroke-miterlimit="10" stroke-linecap="round" stroke-linejoin="round"/>
<path d="M29.1594 68.2787V146.056L106.109 146.043L145.826 116.76V68.2787" stroke="white" stroke-width="4.86111" stroke-miterlimit="10" stroke-linecap="round" stroke-linejoin="round"/>
<path d="M49.1436 81.8918C49.1694 79.2071 47.0139 77.0098 44.3292 76.9841C41.6445 76.9583 39.4472 79.1138 39.4214 81.7985C39.3956 84.4832 41.5511 86.6805 44.2359 86.7063C46.9206 86.732 49.1179 84.5765 49.1436 81.8918Z" fill="white"/>
<path d="M63.7277 81.8911C63.7535 79.2064 61.598 77.0091 58.9132 76.9833C56.2285 76.9575 54.0312 79.113 54.0055 81.7978C53.9797 84.4825 56.1352 86.6798 58.8199 86.7055C61.5046 86.7313 63.7019 84.5758 63.7277 81.8911Z" fill="white"/>
<path d="M78.3118 81.8904C78.3376 79.2056 76.1821 77.0084 73.4974 76.9826C70.8126 76.9568 68.6153 79.1123 68.5896 81.797C68.5638 84.4817 70.7193 86.679 73.404 86.7048C76.0887 86.7306 78.286 84.5751 78.3118 81.8904Z" fill="white"/>
<path d="M92.8958 81.8899C92.9216 79.2052 90.7661 77.0079 88.0814 76.9821C85.3967 76.9563 83.1994 79.1118 83.1736 81.7965C83.1478 84.4813 85.3033 86.6785 87.9881 86.7043C90.6728 86.7301 92.8701 84.5746 92.8958 81.8899Z" fill="white"/>
<path d="M49.1441 96.4759C49.1698 93.7912 47.0143 91.5939 44.3296 91.5681C41.6449 91.5423 39.4476 93.6978 39.4218 96.3825C39.3961 99.0673 41.5516 101.265 44.2363 101.29C46.921 101.316 49.1183 99.1606 49.1441 96.4759Z" fill="white"/>
<path d="M63.7281 96.4751C63.7539 93.7904 61.5984 91.5931 58.9137 91.5674C56.229 91.5416 54.0317 93.6971 54.0059 96.3818C53.9801 99.0665 56.1356 101.264 58.8203 101.29C61.5051 101.315 63.7023 99.1599 63.7281 96.4751Z" fill="white"/>
<path d="M78.3122 96.4744C78.338 93.7897 76.1825 91.5924 73.4978 91.5666C70.8131 91.5409 68.6158 93.6964 68.59 96.3811C68.5642 99.0658 70.7197 101.263 73.4044 101.289C76.0892 101.315 78.2865 99.1591 78.3122 96.4744Z" fill="white"/>
<path d="M92.8963 96.474C92.922 93.7893 90.7665 91.592 88.0818 91.5662C85.3971 91.5404 83.1998 93.6959 83.174 96.3806C83.1483 99.0654 85.3038 101.263 87.9885 101.288C90.6732 101.314 92.8705 99.1587 92.8963 96.474Z" fill="white"/>
<path d="M49.1448 111.06C49.1706 108.375 47.0151 106.178 44.3304 106.152C41.6456 106.126 39.4484 108.282 39.4226 110.967C39.3968 113.651 41.5523 115.849 44.237 115.874C46.9217 115.9 49.119 113.745 49.1448 111.06Z" fill="white"/>
<path d="M145.516 116.759H104.85V130.077" stroke="white" stroke-width="4.86111" stroke-miterlimit="10" stroke-linecap="round" stroke-linejoin="round"/>
</svg>
