<svg width="56" height="56" viewBox="0 0 56 56" fill="none" xmlns="http://www.w3.org/2000/svg">
<rect x="5.12527" y="4.73584" width="49.8322" height="49.8322" rx="1.5" fill="#FFDB62" stroke="#222222"/>
<rect x="0.889282" y="0.5" width="49.8322" height="49.8322" rx="1.5" fill="white" stroke="#222222"/>
<path d="M25.9281 16.6616C21.1285 16.6616 17.2411 20.2795 17.2411 24.7466C17.2411 29.2136 21.1285 32.8315 25.9281 32.8315C30.7277 32.8315 34.6151 29.2136 34.6151 24.7466C34.6151 20.2795 30.7211 16.6616 25.9281 16.6616ZM25.9281 29.995C22.8143 29.995 20.2889 27.6446 20.2889 24.7466C20.2889 21.8485 22.8143 19.4981 25.9281 19.4981C29.0419 19.4981 31.5673 21.8485 31.5673 24.7466C31.5673 27.6446 29.0419 29.995 25.9281 29.995Z" fill="#222222"/>
<path d="M32.9031 9.09923C29.7893 8.96386 22.0741 8.97002 18.9603 9.09923C16.2168 9.21614 13.8037 9.83759 11.8535 11.6466C8.60082 14.68 9.01731 18.7594 9.01731 24.7463C9.01731 30.8746 8.6537 34.8617 11.8535 37.8459C15.1193 40.8855 19.5686 40.4856 25.9284 40.4856C32.4469 40.4856 34.7013 40.4917 37.0085 39.6611C40.1422 38.5289 42.5089 35.9201 42.7403 31.2376C42.8858 28.3396 42.8791 21.1591 42.7403 18.261C42.4626 12.7295 39.2695 9.36996 32.9031 9.09923ZM37.8283 35.8401C35.6929 37.8275 32.7312 37.649 25.8821 37.649C18.8281 37.649 16.0052 37.7475 13.9359 35.8216C11.5626 33.6188 11.9923 30.087 11.9923 24.7278C11.9923 17.4734 11.1924 12.2496 19.0132 11.8804C20.8114 11.8188 21.3403 11.8004 25.8623 11.8004L25.9284 11.8373C33.4452 11.8373 39.3422 11.1051 39.6926 18.3841C39.7719 20.0454 39.7918 20.5438 39.7918 24.7463C39.7918 31.2315 39.924 33.8773 37.8283 35.8401Z" fill="#222222"/>
<path d="M34.9589 18.2305C36.0798 18.2305 36.9885 17.3848 36.9885 16.3416C36.9885 15.2983 36.0798 14.4526 34.9589 14.4526C33.8379 14.4526 32.9293 15.2983 32.9293 16.3416C32.9293 17.3848 33.8379 18.2305 34.9589 18.2305Z" fill="#222222"/>
</svg>
