<svg width="56" height="56" viewBox="0 0 56 56" fill="none" xmlns="http://www.w3.org/2000/svg">
<rect x="5.51453" y="4.73584" width="49.8322" height="49.8322" rx="1.5" fill="#2DC5FA" stroke="#222222"/>
<rect x="1.27853" y="0.5" width="49.8322" height="49.8322" rx="1.5" fill="white" stroke="#222222"/>
<path d="M42.8403 38.502H42.8469V26.9472C42.8469 21.2928 41.538 16.9429 34.438 16.9429C31.0269 16.9429 28.733 18.6841 27.8008 20.3392H27.7017V17.472H20.9719V38.502H27.9793V28.0854C27.9793 25.3413 28.5346 22.6895 32.1838 22.6895C35.78 22.6895 35.8329 25.8212 35.8329 28.2577V38.502H42.8403Z" fill="#222222"/>
<path d="M9.55548 17.4722H16.5761V38.502H9.55548V17.4722Z" fill="#222222"/>
<path d="M13.0656 7C10.818 7 9 8.69205 9 10.784C9 12.876 10.818 14.605 13.0656 14.605C15.3133 14.605 17.1312 12.8699 17.1312 10.784C17.1246 8.69205 15.3067 7 13.0656 7Z" fill="#222222"/>
</svg>
