<svg width="57" height="56" viewBox="0 0 57 56" fill="none" xmlns="http://www.w3.org/2000/svg">
<rect x="5.68237" y="4.73584" width="49.8322" height="49.8322" rx="1.5" fill="#FF4C4C" stroke="#222222"/>
<rect x="1.44629" y="0.5" width="49.8322" height="49.8322" rx="1.5" fill="white" stroke="#222222"/>
<path d="M40.1432 15.9287L42.847 13.5291V13H33.4928L26.8226 28.4495L19.2401 13H9.4297V13.5291L12.583 17.0608C12.8937 17.3192 13.0524 17.7068 13.0127 18.0883V31.9812C13.1119 32.4795 12.9334 32.9964 12.5566 33.3594L9 37.3648V37.8816H19.0748V37.3525L15.5182 33.3532C15.1348 32.9902 14.9497 32.4857 15.029 31.975V19.9649L23.8742 37.8939H24.9055L32.5144 19.9649V34.2454C32.5144 34.6207 32.5144 34.7007 32.25 34.9468L29.5132 37.4079V37.937H42.7875V37.4079L40.1499 35.0022C39.9185 34.8422 39.7995 34.5653 39.8458 34.3007V16.6301C39.7995 16.3655 39.9119 16.0948 40.1432 15.9287Z" fill="#212121"/>
</svg>
