<svg width="147" height="156" viewBox="0 0 147 156" fill="none" xmlns="http://www.w3.org/2000/svg">
<path d="M57.1974 126.723C44.1369 122.193 37.5538 112.127 37.5538 100.324H37.8392C37.8392 100.324 74.7391 109.635 109.839 100.525L110.327 100.324C110.429 106.256 108.574 112.056 105.048 116.829C101.523 121.601 96.5242 125.079 90.8242 126.725" stroke="#2DC5FA" stroke-width="6.0803" stroke-linecap="round" stroke-linejoin="round"/>
<path d="M26.1309 47.1502C28.3196 42.9389 31.9926 39.6891 36.4392 38.0297C40.7105 35.9037 45.6212 35.4475 50.211 36.7501" stroke="#2DC5FA" stroke-width="6.0803" stroke-linecap="round" stroke-linejoin="round"/>
<path d="M119.192 47.1502C116.849 43.0466 113.24 39.8125 108.905 37.9326C104.57 36.0527 99.7426 35.6281 95.1459 36.7225" stroke="#2DC5FA" stroke-width="6.0803" stroke-linecap="round" stroke-linejoin="round"/>
<path d="M99.2303 139.107C114.444 133.2 127.112 122.159 135.041 107.894C142.969 93.6297 145.659 77.0414 142.643 61.0026C139.627 44.9639 131.097 30.4852 118.529 20.0746C105.96 9.66409 90.1469 3.97754 73.8271 4.00007C57.5073 4.02259 41.7095 9.75279 29.1702 20.198C16.631 30.6432 8.14025 45.1454 5.16888 61.1924C2.19751 77.2394 4.9327 93.8203 12.9006 108.063C20.8685 122.305 33.5673 133.312 48.797 139.176" stroke="#2DC5FA" stroke-width="6.0803" stroke-linecap="round" stroke-linejoin="round"/>
<path d="M26.1309 47.1502C28.3196 42.9389 31.9926 39.6891 36.4392 38.0297C40.7105 35.9037 45.6212 35.4475 50.211 36.7501" stroke="#2DC5FA" stroke-width="6.0803" stroke-linecap="round" stroke-linejoin="round"/>
<path d="M119.192 47.1502C116.849 43.0466 113.24 39.8125 108.905 37.9326C104.57 36.0527 99.7426 35.6281 95.1459 36.7225" stroke="#2DC5FA" stroke-width="6.0803" stroke-linecap="round" stroke-linejoin="round"/>
<path d="M87.7213 114.303C87.7213 114.303 92.3363 141.114 84.4854 147.561L84.5629 147.495C83.1789 148.92 81.5228 150.053 79.6928 150.827C77.8628 151.601 75.8961 152 73.9091 152C71.9222 152 69.9555 151.601 68.1255 150.827C66.2955 150.053 64.6394 148.92 63.2554 147.495C55.4045 141.049 60.0194 114.237 60.0194 114.237" stroke="#2DC5FA" stroke-width="6.0803" stroke-linecap="round" stroke-linejoin="round"/>
<path d="M53.3424 60.3729C52.9045 59.1755 52.0894 58.1527 51.0199 57.4586C49.9503 56.7645 48.6843 56.4367 47.4123 56.5244C45.9741 56.38 44.5364 56.8031 43.4056 57.7035C42.2749 58.6038 41.5405 59.9102 41.3591 61.3442C41.5404 62.7783 42.2748 64.0847 43.4055 64.9851C44.5363 65.8855 45.9741 66.3085 47.4123 66.1641L47.2907 66.182C48.7287 66.0381 50.166 66.4614 51.2964 67.3617C52.4268 68.262 53.161 69.5682 53.3424 71.0019C53.1611 72.4359 52.4267 73.7424 51.2959 74.6428C50.1651 75.5431 48.7274 75.9662 47.2892 75.8217V75.8217C46.0171 75.9095 44.751 75.5816 43.6815 74.8875C42.6119 74.1934 41.7968 73.1707 41.3587 71.9732" stroke="#2DC5FA" stroke-width="6.0803" stroke-linecap="round" stroke-linejoin="round"/>
<path d="M47.35 56.5244V51.9295" stroke="#2DC5FA" stroke-width="6.0803" stroke-linecap="round" stroke-linejoin="round"/>
<path d="M47.35 80.4166V75.8217" stroke="#2DC5FA" stroke-width="6.0803" stroke-linecap="round" stroke-linejoin="round"/>
<path d="M105.137 60.3729C104.699 59.1755 103.884 58.1527 102.814 57.4586C101.745 56.7645 100.479 56.4367 99.2067 56.5244V56.5244C97.7685 56.38 96.3307 56.8031 95.2 57.7035C94.0692 58.6038 93.3348 59.9102 93.1534 61.3442C93.3348 62.7783 94.0691 64.0847 95.1999 64.9851C96.3307 65.8855 97.7684 66.3085 99.2067 66.1641L99.0851 66.182C100.523 66.0377 101.961 66.4607 103.092 67.3611C104.222 68.2615 104.957 69.5679 105.138 71.0019C104.957 72.4359 104.223 73.7424 103.092 74.6428C101.961 75.5431 100.523 75.9662 99.0851 75.8217C97.813 75.9095 96.5469 75.5816 95.4774 74.8875C94.4078 74.1934 93.5926 73.1707 93.1546 71.9732" stroke="#2DC5FA" stroke-width="6.0803" stroke-linecap="round" stroke-linejoin="round"/>
<path d="M99.145 56.5244V51.9295" stroke="#2DC5FA" stroke-width="6.0803" stroke-linecap="round" stroke-linejoin="round"/>
<path d="M99.145 80.4166V75.8217" stroke="#2DC5FA" stroke-width="6.0803" stroke-linecap="round" stroke-linejoin="round"/>
<path d="M79.692 126.03C79.2542 124.832 78.4391 123.81 77.3696 123.115C76.3 122.421 75.0339 122.093 73.7619 122.181C73.0373 122.014 72.2844 122.014 71.5593 122.178C70.8342 122.343 70.1556 122.669 69.5739 123.132C68.9923 123.595 68.5226 124.184 68.1997 124.854C67.8769 125.523 67.7092 126.257 67.7092 127.001C67.7092 127.744 67.8769 128.478 68.1997 129.148C68.5226 129.818 68.9923 130.406 69.5739 130.869C70.1556 131.333 70.8342 131.659 71.5593 131.823C72.2844 131.988 73.0373 131.987 73.7619 131.821L73.6403 131.839C74.365 131.672 75.1179 131.671 75.8429 131.836C76.568 132.001 77.2466 132.327 77.8283 132.79C78.4099 133.253 78.8797 133.841 79.2025 134.511C79.5254 135.181 79.693 135.915 79.693 136.658C79.693 137.402 79.5254 138.136 79.2025 138.806C78.8797 139.476 78.4099 140.064 77.8283 140.527C77.2466 140.99 76.568 141.316 75.8429 141.481C75.1179 141.646 74.365 141.645 73.6403 141.478V141.478C72.3683 141.566 71.1022 141.238 70.0326 140.544C68.963 139.85 68.1479 138.827 67.7099 137.63" stroke="#2DC5FA" stroke-width="6.0803" stroke-linecap="round" stroke-linejoin="round"/>
<path d="M73.7005 122.181V117.586" stroke="#2DC5FA" stroke-width="6.0803" stroke-linecap="round" stroke-linejoin="round"/>
<path d="M73.7005 146.074V141.479" stroke="#2DC5FA" stroke-width="6.0803" stroke-linecap="round" stroke-linejoin="round"/>
</svg>
