<svg width="90" height="138" viewBox="0 0 90 138" fill="none" xmlns="http://www.w3.org/2000/svg">
<path d="M44.67 135.246C43.0939 135.111 41.5798 134.569 40.2757 133.674C38.9715 132.779 37.922 131.56 37.2295 130.138C3.59024 78.2799 3.00713 48.8509 3 47.622C3 23.011 21.8395 3 44.9996 3C68.1597 3 86.9992 23.011 86.9992 47.6115C87.0172 48.783 87.0172 77.4634 53.1637 129.35C52.8413 129.894 49.5277 135.246 44.67 135.246Z" stroke="white" stroke-width="5.28184" stroke-linecap="round" stroke-linejoin="round"/>
<path d="M45 65.579C41.3006 65.5789 37.6843 64.4819 34.6084 62.4265C31.5324 60.3712 29.1351 57.4499 27.7194 54.0321C26.3037 50.6143 25.9334 46.8535 26.6551 43.2251C27.3769 39.5968 29.1583 36.264 31.7742 33.6482C34.3901 31.0323 37.7229 29.2509 41.3513 28.5292C44.9796 27.8075 48.7404 28.1779 52.1582 29.5936C55.576 31.0094 58.4973 33.4068 60.5526 36.4827C62.6078 39.5587 63.7048 43.175 63.7048 46.8744C63.6992 51.8335 61.7268 56.5878 58.2201 60.0944C54.7135 63.601 49.9591 65.5734 45 65.579V65.579Z" stroke="white" stroke-width="5.28184" stroke-linecap="round" stroke-linejoin="round"/>
</svg>
