<svg width="192" height="192" viewBox="0 0 192 192" fill="none" xmlns="http://www.w3.org/2000/svg">
<path d="M98.1904 158.117C132.064 158.117 159.524 130.658 159.524 96.7841C159.524 62.9107 132.064 35.4508 98.1904 35.4508C64.317 35.4508 36.8571 62.9107 36.8571 96.7841C36.8571 130.658 64.317 158.117 98.1904 158.117Z" stroke="#2DC5FA" stroke-width="5.33333" stroke-miterlimit="10" stroke-linecap="round" stroke-linejoin="round"/>
<path d="M150.309 47.2443L155.58 43.1654L163.74 53.7086L158.852 57.491" stroke="#2DC5FA" stroke-width="5.33333" stroke-miterlimit="10" stroke-linecap="round" stroke-linejoin="round"/>
<path d="M86.1904 25.9389V18.6666H110.19V26.3816" stroke="#2DC5FA" stroke-width="5.33333" stroke-miterlimit="10" stroke-linecap="round" stroke-linejoin="round"/>
<path d="M96.9267 47.9511C98.3995 47.9511 99.5934 46.7572 99.5934 45.2845C99.5934 43.8117 98.3995 42.6178 96.9267 42.6178C95.454 42.6178 94.2601 43.8117 94.2601 45.2845C94.2601 46.7572 95.454 47.9511 96.9267 47.9511Z" fill="#2DC5FA"/>
<path d="M96.9267 149.397C98.3995 149.397 99.5934 148.203 99.5934 146.731C99.5934 145.258 98.3995 144.064 96.9267 144.064C95.454 144.064 94.2601 145.258 94.2601 146.731C94.2601 148.203 95.454 149.397 96.9267 149.397Z" fill="#2DC5FA"/>
<path d="M134.7 62.0496C135.729 61.0209 135.709 59.3325 134.655 58.2786C133.601 57.2246 131.912 57.2041 130.884 58.2327C129.855 59.2614 129.875 60.9498 130.929 62.0037C131.983 63.0577 133.672 63.0783 134.7 62.0496Z" fill="#2DC5FA"/>
<path d="M62.9672 133.782C63.9959 132.753 63.9754 131.065 62.9214 130.011C61.8674 128.957 60.1791 128.936 59.1504 129.965C58.1217 130.994 58.1422 132.682 59.1962 133.736C60.2502 134.79 61.9385 134.811 62.9672 133.782Z" fill="#2DC5FA"/>
<path d="M147.65 98.6742C149.122 98.6742 150.316 97.4802 150.316 96.0075C150.316 94.5347 149.122 93.3408 147.65 93.3408C146.177 93.3408 144.983 94.5347 144.983 96.0075C144.983 97.4802 146.177 98.6742 147.65 98.6742Z" fill="#2DC5FA"/>
<path d="M46.2038 98.6742C47.6765 98.6742 48.8704 97.4802 48.8704 96.0075C48.8704 94.5347 47.6765 93.3408 46.2038 93.3408C44.731 93.3408 43.5371 94.5347 43.5371 96.0075C43.5371 97.4802 44.731 98.6742 46.2038 98.6742Z" fill="#2DC5FA"/>
<path d="M98.2398 95.7601H57.1732" stroke="#2DC5FA" stroke-width="5.33333" stroke-miterlimit="10" stroke-linecap="round" stroke-linejoin="round"/>
<path d="M98.359 95.8008L69.3206 124.839" stroke="#2DC5FA" stroke-width="5.33333" stroke-miterlimit="10" stroke-linecap="round" stroke-linejoin="round"/>
<path d="M134.654 133.737C135.708 132.683 135.729 130.994 134.7 129.966C133.671 128.937 131.983 128.958 130.929 130.012C129.875 131.065 129.854 132.754 130.883 133.783C131.912 134.811 133.6 134.791 134.654 133.737Z" fill="#2DC5FA"/>
<path d="M62.9219 62.0033C63.9759 60.9493 63.9964 59.261 62.9677 58.2323C61.939 57.2036 60.2507 57.2241 59.1967 58.2781C58.1427 59.3321 58.1222 61.0204 59.1509 62.0491C60.1795 63.0778 61.8679 63.0573 62.9219 62.0033Z" fill="#2DC5FA"/>
</svg>
