<svg width="56" height="56" viewBox="0 0 56 56" fill="none" xmlns="http://www.w3.org/2000/svg">
<rect x="5.29309" y="4.73584" width="49.8322" height="49.8322" rx="1.5" fill="#68E0D0" stroke="#222222"/>
<rect x="0.989716" y="0.863281" width="49.8322" height="49.8322" rx="1.5" fill="white" stroke="#222222"/>
<path d="M25.3389 7C14.1056 7 5 15.4746 5 25.9294C5 36.3843 14.1056 44.8589 25.3389 44.8589C36.5723 44.8589 45.6779 36.3843 45.6779 25.9294C45.6779 15.4746 36.5713 7 25.3389 7ZM34.1905 34.4713C33.9318 34.8829 33.4667 35.1131 32.9883 35.1131C32.7495 35.1131 32.5089 35.0564 32.2882 34.936C28.6328 32.9478 24.4106 32.6282 21.5124 32.7105C18.3012 32.8017 15.9461 33.3913 15.9223 33.3975C15.1823 33.586 14.4166 33.1806 14.214 32.491C14.0114 31.8022 14.4451 31.0905 15.1852 30.901C15.2917 30.8736 17.8256 30.2336 21.3497 30.1247C23.4252 30.0609 25.4236 30.1955 27.2888 30.5248C29.6506 30.9418 31.805 31.6739 33.6921 32.6999C34.3541 33.0611 34.5777 33.8543 34.1905 34.4713ZM36.7758 29.4731C36.4696 29.9609 35.9179 30.2327 35.3519 30.2327C35.0694 30.2327 34.7831 30.1654 34.5225 30.0229C30.1937 27.6681 25.1915 27.2901 21.7578 27.3866C17.954 27.4946 15.1642 28.193 15.1366 28.2001C14.2597 28.4223 13.3532 27.9425 13.1126 27.1272C12.8719 26.311 13.3865 25.4682 14.2625 25.2434C14.3881 25.2115 17.39 24.452 21.5647 24.3245C24.0235 24.2492 26.3909 24.4086 28.5995 24.7981C31.3969 25.2921 33.9489 26.1587 36.1842 27.3751C36.9699 27.8026 37.2352 28.7419 36.7758 29.4731ZM38.3652 24.9291C38.019 24.9291 37.668 24.8459 37.3475 24.6715C27.0548 19.0731 13.7042 22.4017 13.5701 22.4353C12.4943 22.7115 11.3814 22.1228 11.0856 21.1216C10.7888 20.1204 11.4214 19.0846 12.4971 18.8093C12.6512 18.7695 16.3332 17.8391 21.4543 17.6815C24.4705 17.5894 27.3744 17.7842 30.0834 18.2631C33.5152 18.8686 36.6455 19.9327 39.3877 21.4235C40.3513 21.9476 40.6756 23.0993 40.1125 23.996C39.7359 24.5954 39.0596 24.9291 38.3652 24.9291Z" fill="#222222"/>
</svg>
