<svg width="56" height="56" viewBox="0 0 56 56" fill="none" xmlns="http://www.w3.org/2000/svg">
<rect x="4.90381" y="4.73584" width="49.8322" height="49.8322" rx="1.5" fill="#564CFF" stroke="#222222"/>
<rect x="0.667786" y="0.5" width="49.8322" height="49.8322" rx="1.5" fill="white" stroke="#222222"/>
<path d="M41.1379 20.4477C40.7463 19.0982 39.6033 18.0343 38.1533 17.6698C35.5073 17 24.9182 17 24.9182 17C24.9182 17 14.3291 17 11.6779 17.6501C10.2544 18.0146 9.08484 19.1031 8.69324 20.4526C8 22.9152 8 28.0227 8 28.0227C8 28.0227 8 33.1597 8.69853 35.5977C9.09013 36.9472 10.2332 38.0111 11.6832 38.3755C14.3609 39.0503 24.9235 39.0503 24.9235 39.0503C24.9235 39.0503 35.5126 39.0503 38.1639 38.4002C39.6138 38.0357 40.7569 36.9718 41.1485 35.6223C41.847 33.1597 41.847 28.0473 41.847 28.0473C41.847 28.0473 41.8629 22.9152 41.1379 20.4477ZM21.5473 32.746V23.3043L30.353 28.0276L21.5473 32.746Z" fill="#222222"/>
</svg>
